PathFileType	4	(X/Y/Z)	CPRIT_Patient3_L_KneeIso_Processed.TRC
DataRate	CameraRate	NumFrames	NumMarkers	Units	OrigDataRate	OrigDataStartFrame	OrigNumFrames
150.195058517555	150.195058517555	5	36	m	150.195058517555	193	       771
Frame#	Time	R.Heel			R.Midfoot.Superior			R.Midfoot.Lateral			R.Toe			L.Heel			L.Midfoot.Superior			L.Midfoot.Lateral			L.Toe			R.Shank.Superior			R.Shank.Inferior			R.Shank.Lateral			R.Shank.Posterior			L.Shank.Superior			L.Shank.Inferior			L.Shank.Posterior			L.Shank.Lateral			R.Patella			L.Patella			R.Thigh.Superior			R.Thigh.Lateral			R.Thigh.Inferior			L.Thigh.Superior			L.Thigh.Inferior			L.Thigh.Lateral			L.Asis			R.Asis			R.Shoulder			L.Shoulder			C7			J.Notch			Sternum			Thoracic			L.Elbow			L.Wrist			R.Elbow			R.Wrist			
		X1	Y1	Z1	X2	Y2	Z2	X3	Y3	Z3	X4	Y4	Z4	X5	Y5	Z5	X6	Y6	Z6	X7	Y7	Z7	X8	Y8	Z8	X9	Y9	Z9	X10	Y10	Z10	X11	Y11	Z11	X12	Y12	Z12	X13	Y13	Z13	X14	Y14	Z14	X15	Y15	Z15	X16	Y16	Z16	X17	Y17	Z17	X18	Y18	Z18	X19	Y19	Z19	X20	Y20	Z20	X21	Y21	Z21	X22	Y22	Z22	X23	Y23	Z23	X24	Y24	Z24	X25	Y25	Z25	X26	Y26	Z26	X27	Y27	Z27	X28	Y28	Z28	X29	Y29	Z29	X30	Y30	Z30	X31	Y31	Z31	X32	Y32	Z32	X33	Y33	Z33	X34	Y34	Z34	X35	Y35	Z35	X36	Y36	Z36	

193	1.278337662338	0.480673361427	0.049363090067	0.082905003117	0.647378573225	0.098003582292	0.116223366144	0.549784674538	0.038040370855	0.147880466844	0.762031270117	0.054613679794	0.140144197117	0.268027733481	0.442426839607	-0.037108015870	0.388953790778	0.316426823145	-0.077375422822	0.286543105793	0.370930363047	-0.103218719633	0.403898565241	0.193997818508	-0.093228115696	0.607910894954	0.357533571492	0.148662787521	0.598620537666	0.237878871997	0.137960004064	0.529193931165	0.289638720879	0.194929712556	0.469658799129	0.356221386049	0.140192537614	0.627256244045	0.426929514634	-0.092199273065	0.500637637783	0.401603736879	-0.075746465372	0.550048598232	0.549960383114	-0.084210016975	0.519848490190	0.466638132182	-0.135236591485	0.636689833309	0.466097794838	0.135579676640	0.765783817460	0.483505524400	-0.090434343906	0.690235897708	0.775441956080	0.167720402376	0.608451143981	0.706042216512	0.222753220010	0.676834968369	0.617521567035	0.135363919131	0.698656539758	0.820402321773	-0.095136146131	0.757501114682	0.669302751854	-0.088478358955	0.638150951905	0.728417070852	-0.149483445308	0.651162697971	0.956287759800	-0.073328356528	0.681446872235	0.936076408520	0.159787120069	0.579368846568	1.445618560749	0.230815920084	0.604463243425	1.435390248413	-0.097871430978	0.549127919970	1.480658039110	0.083190815396	0.669223457736	1.380639929742	0.070774225355	0.722318421288	1.199500751651	0.057788447260	0.465812751089	1.325690502171	0.073905778906	0.549808379183	1.173863983492	-0.274892128142	0.614853828686	0.988363298204	-0.432114780150	0.552451623284	1.141474239958	0.389108168335	0.762599327913	0.990612416395	0.414668043564	
194	1.284995670996	0.480673237054	0.049361844551	0.082905884165	0.647376307733	0.098003799135	0.116220209421	0.549783846754	0.038039025066	0.147881396397	0.762030593724	0.054615267039	0.140141446170	0.268417534499	0.437589081745	-0.037447776262	0.390628420419	0.312890339324	-0.077777041793	0.287721889210	0.366369980486	-0.103571137784	0.406871717491	0.190648663966	-0.093688847079	0.607882680404	0.357534532012	0.148669514456	0.598606834065	0.237883631614	0.137962122507	0.529185259600	0.289624876052	0.194946728873	0.469616025425	0.356224936745	0.140266440630	0.627781468122	0.425994507179	-0.092362726764	0.501467987799	0.399329180999	-0.076056544653	0.549262332130	0.548127365629	-0.084253335809	0.519973597857	0.464576832547	-0.135405822597	0.636638022883	0.466069768355	0.135533981877	0.765679319599	0.483582331612	-0.090419098972	0.690174121330	0.775444358545	0.167668591184	0.608425948500	0.706043660415	0.222738187811	0.676778074216	0.617527741377	0.135328640985	0.698490276074	0.820395278889	-0.095176676013	0.757225152030	0.669228520473	-0.088406310574	0.637914537306	0.728375817690	-0.149489213503	0.650964775312	0.956278501984	-0.073374919991	0.681376895641	0.936079177705	0.159714969863	0.579420668746	1.445600326969	0.230864977941	0.604450172417	1.435370217636	-0.097844645336	0.549135814513	1.480654803601	0.083252674102	0.669191452383	1.380591633851	0.070793754832	0.722218292048	1.199439247195	0.057756659968	0.465765268957	1.325713401403	0.073973756343	0.549803542466	1.173849724806	-0.274866829556	0.614846312575	0.988360762645	-0.432105870113	0.552456576363	1.141483973683	0.389197300934	0.762598422051	0.990610644035	0.414678542956	
195	1.291653679654	0.480673053412	0.049360624797	0.082906842771	0.647373991600	0.098004024900	0.116217256377	0.549783007193	0.038037583531	0.147882423183	0.762029834874	0.054616823494	0.140138898863	0.268873074017	0.432638386915	-0.037792571522	0.392391104480	0.309283422827	-0.078184617828	0.288967748509	0.361705652138	-0.103910077210	0.409960232172	0.187245160646	-0.094162966386	0.607853831732	0.357535671270	0.148677139373	0.598592648527	0.237888572864	0.137964991636	0.529176464431	0.289610775470	0.194964643643	0.469573042265	0.356227878428	0.140341227799	0.628341729245	0.425040978452	-0.092521438643	0.502346762684	0.397009480380	-0.076363356262	0.548490215507	0.546250788597	-0.084278360109	0.520135133239	0.462471602799	-0.135569474527	0.636586233916	0.466045562524	0.135493841954	0.765589134814	0.483664280130	-0.090379774443	0.690112681091	0.775447228522	0.167615966610	0.608401569014	0.706045637903	0.222723150759	0.676720845623	0.617534561706	0.135292478899	0.698326232827	0.820385352821	-0.095211161657	0.756951576744	0.669153321592	-0.088323280355	0.637681776806	0.728329523720	-0.149486925980	0.650764548275	0.956267731252	-0.073423226454	0.681307761787	0.936083158332	0.159640195353	0.579469673153	1.445580304365	0.230910782815	0.604432828482	1.435351055531	-0.097820373503	0.549141412789	1.480650415728	0.083311905963	0.669156404288	1.380541853974	0.070809534524	0.722115529286	1.199377321560	0.057719006869	0.465714314002	1.325734937154	0.074038610029	0.549795209813	1.173835973001	-0.274844949395	0.614838356527	0.988358284062	-0.432098205286	0.552459405322	1.141491928985	0.389283623506	0.762596962225	0.990609149372	0.414688212137	
196	1.298311688312	0.480672798990	0.049359430060	0.082907869584	0.647371615990	0.098004272240	0.116214579051	0.549782157599	0.038036054269	0.147883544580	0.762028977236	0.054618365443	0.140136603506	0.269397179616	0.427597595062	-0.038137763626	0.394237962035	0.305624323698	-0.078595093809	0.290280242003	0.356960129091	-0.104233254863	0.413153320999	0.183805714898	-0.094648756142	0.607823774682	0.357537093973	0.148685684333	0.598577582743	0.237893664172	0.137968670023	0.529166959574	0.289596490793	0.194983373253	0.469529443950	0.356230004651	0.140416186226	0.628935405671	0.424074311065	-0.092675592787	0.503272806748	0.394656038541	-0.076665584980	0.547737799371	0.544339977562	-0.084283822200	0.520334114532	0.460333248204	-0.135726047111	0.636533861441	0.466025223988	0.135459474391	0.765514024660	0.483751958871	-0.090318056374	0.690050794989	0.775450437782	0.167563194114	0.608376784151	0.706048139633	0.222708389640	0.676662455571	0.617541901593	0.135256048202	0.698164928179	0.820372726337	-0.095239596486	0.756681544601	0.669077923097	-0.088231149765	0.637453345200	0.728278795222	-0.149476994319	0.650562926652	0.956255506841	-0.073472784939	0.681238518330	0.936087966214	0.159563981420	0.579514965258	1.445558779881	0.230952835201	0.604411047432	1.435332957043	-0.097798954984	0.549144218594	1.480645011010	0.083367847405	0.669118068408	1.380490956802	0.070821344616	0.722010285866	1.199315338590	0.057675912266	0.465659815723	1.325755037801	0.074099764700	0.549783182129	1.173822787795	-0.274826846269	0.614830024643	0.988355884026	-0.432091856881	0.552459959688	1.141497982620	0.389366007819	0.762594871428	0.990607962419	0.414696931561	
197	1.304969696970	0.480672464727	0.049358257519	0.082908956600	0.647369173508	0.098004554003	0.116212250923	0.549781299691	0.038034447271	0.147884758003	0.762028007472	0.054619909680	0.140134605957	0.269992186790	0.422488428263	-0.038478958442	0.396165100831	0.301930360335	-0.079005508975	0.291659021525	0.352155097256	-0.104539166150	0.416440469892	0.180347658835	-0.095144455368	0.607791977744	0.357538885172	0.148695159655	0.598561264023	0.237898853982	0.137973205180	0.529156178546	0.289582097812	0.195002821443	0.469484833126	0.356231160802	0.140490653681	0.629560843759	0.423099633550	-0.092825518815	0.504244993524	0.392279612646	-0.076962069866	0.547010137103	0.542403868176	-0.084268865345	0.520571323333	0.458172003586	-0.135874238001	0.636480327434	0.466008691604	0.135430976526	0.765454588814	0.483845931930	-0.090236041568	0.689987696447	0.775453864814	0.167510983662	0.608350365876	0.706051151343	0.222694191252	0.676602127584	0.617549619639	0.135220003169	0.698006869417	0.820357624352	-0.095262106921	0.756416176405	0.669003078527	-0.088131917111	0.637229863422	0.728224280682	-0.149459933832	0.650360852192	0.956241917607	-0.073523067735	0.681168270420	0.936093267799	0.159487506984	0.579555684055	1.445536060231	0.230990698347	0.604384722341	1.435316097923	-0.097780685061	0.549143764989	1.480638737521	0.083419888788	0.669076227688	1.380439312391	0.070829037088	0.721902724985	1.199253657647	0.057627905177	0.465601731241	1.325773657316	0.074156701167	0.549767316991	1.173810229002	-0.274812826046	0.614821384911	0.988353584163	-0.432086887976	0.552458116885	1.141502055623	0.389443433301	0.762592064911	0.990607110416	0.414704612369	
